<svg width="23" height="23" viewBox="0 0 23 23" fill="none" xmlns="http://www.w3.org/2000/svg">
<path d="M20.6379 8.41964C20.5802 8.24983 20.4741 8.10061 20.3326 7.99043C20.1911 7.88024 20.0205 7.81389 19.8417 7.79959L14.6126 7.38408L12.3498 2.37506C12.2777 2.21373 12.1605 2.07671 12.0123 1.98052C11.864 1.88434 11.6912 1.8331 11.5145 1.83301C11.3378 1.83291 11.1648 1.88395 11.0165 1.97998C10.8682 2.076 10.7508 2.2129 10.6786 2.37415L8.41575 7.38408L3.18659 7.79959C3.0109 7.8135 2.84294 7.87774 2.7028 7.98462C2.56267 8.0915 2.45629 8.23648 2.39639 8.40224C2.33649 8.56799 2.32562 8.74749 2.36507 8.91926C2.40452 9.09103 2.49261 9.2478 2.61883 9.37081L6.48313 13.1379L5.11645 19.0559C5.07496 19.235 5.08826 19.4225 5.15463 19.594C5.221 19.7655 5.33738 19.913 5.48867 20.0175C5.63996 20.1221 5.81916 20.1787 6.00304 20.1801C6.18691 20.1815 6.36696 20.1276 6.51982 20.0254L11.5142 16.6958L16.5085 20.0254C16.6647 20.1291 16.849 20.1825 17.0365 20.1784C17.224 20.1743 17.4057 20.1129 17.5573 20.0024C17.7088 19.8919 17.8229 19.7377 17.8841 19.5604C17.9454 19.3832 17.9509 19.1914 17.8999 19.0109L16.2223 13.1406L20.3829 9.39649C20.6553 9.15067 20.7553 8.76727 20.6379 8.41964Z" fill="#F3CD03"/>
</svg>
