    <svg width="19" height="20" viewBox="0 0 19 20" fill="none" xmlns="http://www.w3.org/2000/svg">
    <path d="M4.49967 12.1374L3.133 18.0554C3.09068 18.2346 3.10338 18.4224 3.16945 18.5943C3.23552 18.7662 3.35189 18.9141 3.50335 19.0188C3.65481 19.1235 3.83432 19.1801 4.01845 19.1812C4.20258 19.1823 4.38275 19.1278 4.53545 19.0249L9.52979 15.6954L14.5241 19.0249C14.6804 19.1287 14.8646 19.1821 15.0521 19.178C15.2396 19.1739 15.4213 19.1124 15.5729 19.0019C15.7244 18.8915 15.8385 18.7372 15.8998 18.56C15.961 18.3827 15.9665 18.191 15.9156 18.0105L14.2379 12.1402L18.3985 8.39603C18.5318 8.27605 18.6269 8.11963 18.6722 7.94614C18.7175 7.77264 18.711 7.58967 18.6534 7.41986C18.5958 7.25004 18.4897 7.10083 18.3483 6.99067C18.2068 6.88051 18.0361 6.81423 17.8574 6.80004L12.6282 6.38362L10.3654 1.3746C10.2932 1.21331 10.1759 1.07635 10.0277 0.980249C9.8794 0.884145 9.70648 0.833008 9.52979 0.833008C9.35309 0.833008 9.18017 0.884145 9.0319 0.980249C8.88363 1.07635 8.76634 1.21331 8.69419 1.3746L6.43137 6.38362L1.20222 6.79913C1.02653 6.81305 0.858566 6.87729 0.718428 6.98416C0.57829 7.09104 0.47191 7.23602 0.412015 7.40178C0.35212 7.56753 0.341246 7.74703 0.380693 7.9188C0.420141 8.09057 0.50824 8.24734 0.634451 8.37035L4.49967 12.1374V12.1374ZM7.11654 8.16947C7.28027 8.15658 7.4375 8.09987 7.57177 8.0053C7.70604 7.91073 7.81239 7.78179 7.87968 7.63198L9.52979 3.98047L11.1799 7.63198C11.2472 7.78179 11.3535 7.91073 11.4878 8.0053C11.6221 8.09987 11.7793 8.15658 11.943 8.16947L15.5863 8.4584L12.586 11.1587C12.3255 11.3936 12.2219 11.7549 12.3173 12.0925L13.4666 16.1146L10.0398 13.8297C9.88936 13.7288 9.71231 13.6749 9.53116 13.6749C9.35002 13.6749 9.17297 13.7288 9.02256 13.8297L5.44167 16.2173L6.40477 12.0475C6.44008 11.8942 6.43534 11.7343 6.39101 11.5833C6.34667 11.4323 6.26423 11.2953 6.15161 11.1853L3.36506 8.46849L7.11654 8.16947V8.16947Z" fill="#F3CD03"/>
    </svg>
